<?xml version="1.0" encoding="utf-8"?>
<!-- Generator: Adobe Illustrator 26.0.1, SVG Export Plug-In . SVG Version: 6.00 Build 0)  -->
<svg version="1.1" id="Layer_1" xmlns="http://www.w3.org/2000/svg" xmlns:xlink="http://www.w3.org/1999/xlink" x="0px" y="0px"
	 viewBox="0 0 512 512" style="enable-background:new 0 0 512 512;" xml:space="preserve">
<style type="text/css">
	.st0{fill:url(#SVGID_1_);}
	.st1{fill:url(#SVGID_00000041296374455182244980000010879419300988899992_);}
</style>
<linearGradient id="SVGID_1_" gradientUnits="userSpaceOnUse" x1="2.9995" y1="479.5" x2="63.0001" y2="479.5" gradientTransform="matrix(8 0 0 -8 0 4096)">
	<stop  offset="0.2682" style="stop-color:#C8453D"/>
	<stop  offset="1" style="stop-color:#C8773D"/>
</linearGradient>
<path class="st0" d="M440,256h28c21.1,0,37.8-18,35.8-39.5c-1.7-18.7-18.5-32.5-40.3-32.5h-26.2c-11.7,0-21.9-9.6-21.2-21.2
	c0.3-5,2.5-9.6,5.8-12.9c3.6-3.6,8.6-5.8,14.2-5.8h22.9c10.5,0,20-7.5,21-17.9c1.2-12-8.2-22.1-19.9-22.1h-92c-8.8,0-16-7.2-16-16
	l0,0c0-8.8,7.2-16,16-16h10.9c10.5,0,20-7.5,21-17.9c1.2-12-8.2-22.1-19.9-22.1H198.2H128H92.9c-13.4,0-25.5,9-28.2,22.1
	c-0.5,2-0.6,4-0.6,5.9c0,15.4,12.6,28,28,28h6.7c11.7,0,21.9,9.6,21.2,21.2c-0.3,5-2.5,9.6-5.8,12.9c-3.6,3.6-8.6,5.8-14.2,5.8H57.4
	c-16.7,0-31.6,12.2-33.2,28.9C22.3,176,37.3,192,56,192h72.9c17.7,0,32,14.3,32,32l0,0c0,17.7-14.3,32-32,32h-7.5
	c-16.7,0-31.6,12.2-33.2,28.9C86.3,304,101.3,320,120,320l0,0c8.5,0,16.1,6.2,16.8,14.6c0.4,5-1.4,9.5-4.7,12.7
	c-2.9,3-6.9,4.7-11.3,4.7H81.7c-20.9,0-39.6,15.3-41.6,36c-2.3,23.9,16.4,44,39.8,44h32c15.3,0,28.2,12.3,28,27.6
	c-0.2,15.6,12.4,28.4,28,28.4h138.5h46.1H456c18.7,0,33.7-16,31.8-35.1c-1.6-16.6-16.5-28.9-37.5-28.9h-36.8
	c-16,0-30.1-13.1-29.6-29c0.3-7.3,3.3-13.9,8.2-18.7c5-5.1,12.1-8.2,19.8-8.2h26.9c16.2,0,30.8-11.6,32.9-27.7
	c2.5-19.2-12-35.6-30.5-36.2c-12.5-0.5-23.8-9.1-25.1-21.5c-0.8-7.6,2.1-14.6,6.9-19.5C427.4,258.7,433.4,256,440,256z"/>
<linearGradient id="SVGID_00000116232099508842415610000015278854310299002018_" gradientUnits="userSpaceOnUse" x1="34.9999" y1="444.675" x2="34.9999" y2="496.675" gradientTransform="matrix(8 0 0 -8 0 4096)">
	<stop  offset="3.729453e-08" style="stop-color:#F15152"/>
	<stop  offset="0.569" style="stop-color:#EF3039"/>
	<stop  offset="1" style="stop-color:#F15152"/>
</linearGradient>
<path style="fill:url(#SVGID_00000116232099508842415610000015278854310299002018_);" d="M398.1,236.3L205.1,56.6
	c-20.2-19-53.1-4.5-53.1,23.3v264.7c0,22.6,23.1,37.8,43.7,28.7l53.4-25c7.8-3.4,16.9,0.1,20.6,7.8l41.3,88.4
	c5.8,12.3,18,19.5,30.7,19.5c6.5,0,13.2-1.9,19.2-6c14-9.5,18.3-28.5,11-43.8l-39.1-83.9c-3.9-8.2-0.2-18,8.1-21.6l48.6-20.7
	C409.9,278.9,414.5,251.7,398.1,236.3z"/>
</svg>
